<?xml version="1.0" encoding="UTF-8" standalone="no"?>
<!-- Created with Inkscape (http://www.inkscape.org/) -->

<svg
   xmlns:dc="http://purl.org/dc/elements/1.1/"
   xmlns:cc="http://creativecommons.org/ns#"
   xmlns:rdf="http://www.w3.org/1999/02/22-rdf-syntax-ns#"
   xmlns:svg="http://www.w3.org/2000/svg"
   xmlns="http://www.w3.org/2000/svg"
   xmlns:sodipodi="http://sodipodi.sourceforge.net/DTD/sodipodi-0.dtd"
   xmlns:inkscape="http://www.inkscape.org/namespaces/inkscape"
   width="1000.0001"
   height="1000"
   id="svg2"
   version="1.1"
   inkscape:version="0.48.2 r9819"
   sodipodi:docname="loader.svg">
  <defs
     id="defs4" />
  <sodipodi:namedview
     id="base"
     pagecolor="#ffffff"
     bordercolor="#666666"
     borderopacity="1.0"
     inkscape:pageopacity="0.0"
     inkscape:pageshadow="2"
     inkscape:zoom="0.24748737"
     inkscape:cx="353.4516"
     inkscape:cy="325.16986"
     inkscape:document-units="px"
     inkscape:current-layer="layer1"
     showgrid="false"
     inkscape:window-width="1440"
     inkscape:window-height="848"
     inkscape:window-x="-8"
     inkscape:window-y="-8"
     inkscape:window-maximized="1"
     units="px"
     fit-margin-top="0"
     fit-margin-left="0"
     fit-margin-right="0"
     fit-margin-bottom="0" />
  <metadata
     id="metadata7">
    <rdf:RDF>
      <cc:Work
         rdf:about="">
        <dc:format>image/svg+xml</dc:format>
        <dc:type
           rdf:resource="http://purl.org/dc/dcmitype/StillImage" />
        <dc:title />
      </cc:Work>
    </rdf:RDF>
  </metadata>
  <g
     inkscape:label="Calque 1"
     inkscape:groupmode="layer"
     id="layer1">
    <path
       d="M 374.99999,124.99997 C 374.99999,55.964384 430.9644,-2.6e-5 499.99999,-2.6e-5 569.03559,-2.6e-5 624.99999,55.964384 624.99999,124.99997 624.99999,194.03556 569.03559,249.99998 499.99999,249.99998 430.9644,249.99998 374.99999,194.03556 374.99999,124.99997 z"
       id="p0" />
    <path
       d="M 676.7767,146.44657 C 725.59223,97.631034 804.73786,97.631034 853.5534,146.44657 902.36894,195.26211 902.36893,274.40773 853.55339,323.22327 804.73786,372.0388 725.59224,372.03881 676.7767,323.22327 627.96116,274.40773 627.96116,195.2621 676.7767,146.44657 z"
       id="p1" />
    <path
       d="M 875.00002,375.00001 C 944.03561,375.00001 1000,430.96442 1000,500.00001 1000,569.03561 944.03561,625.00001 875.00002,625.00001 805.96443,625.00001 750.00002,569.03561 750.00002,500.00001 750.00002,430.96442 805.96443,375.00001 875.00002,375.00001 z"
       id="p2" />
    <path
       d="M 853.55339,676.7767 C 902.36893,725.59224 902.36893,804.73787 853.55339,853.5534 804.73785,902.36894 725.59223,902.36894 676.77669,853.5534 627.96116,804.73787 627.96115,725.59224 676.77669,676.7767 725.59223,627.96117 804.73786,627.96117 853.55339,676.7767 z"
       id="p3" />
    <path
       d="M 374.99999,875 C 374.99999,805.96441 430.9644,749.99999 499.99999,749.99999 569.03559,749.99999 624.99999,805.96441 624.99999,875 624.99999,944.03559 569.03559,1000 499.99999,1000 430.9644,1000 374.99999,944.03559 374.99999,875 z"
       id="p4" />
    <path
       d="M 146.44653,676.77674 C 195.26206,627.96121 274.40769,627.96121 323.22323,676.77674 372.03877,725.59228 372.03876,804.73791 323.22323,853.55344 274.40769,902.36898 195.26207,902.36898 146.44653,853.55344 97.630993,804.73791 97.630993,725.59228 146.44653,676.77674 z"
       id="p5" />
    <path
       d="M 125,375 C 194.03559,375 250,430.96442 250,500.00001 250,569.0356 194.03559,625.00001 125,625.00001 55.964406,625.00001 -5.557899e-6,569.0356 -5.557899e-6,500.00001 -5.557899e-6,430.96442 55.964406,375 125,375 z"
       id="p6" />
    <path
       d="M 323.22323,146.44666 C 372.03877,195.2622 372.03877,274.40782 323.22323,323.22336 274.40769,372.0389 195.26207,372.03889 146.44654,323.22336 97.631005,274.40782 97.630998,195.2622 146.44654,146.44666 195.26207,97.631134 274.4077,97.631134 323.22323,146.44666 z"
       id="p7" />
    <path
       d="M 725,500 C 725,624.26406 624.26406,725 500,725 375.73594,725 275,624.26406 275,500 275,375.73594 375.73594,275 500,275 624.26406,275 725,375.73594 725,500 z"
       id="pc"
       inkscape:connector-curvature="0" />
  </g>
</svg>
